<?xml version="1.0" encoding="UTF-8" standalone="no"?>
<!-- Created with Inkscape (http://www.inkscape.org/) -->

<svg
   width="138.85237mm"
   height="31.858772mm"
   viewBox="0 0 138.85237 31.858772"
   version="1.1"
   id="svg1"
   xml:space="preserve"
   xmlns="http://www.w3.org/2000/svg"
   xmlns:svg="http://www.w3.org/2000/svg"><defs
     id="defs1" /><g
     id="layer1"
     transform="translate(-36.272371,-137.73682)"><path
       style="fill:#000000"
       d="m 47.168691,169.09345 c -5.05468,-2.23247 -8.75012,-5.88294 -10.32051,-10.19491 l -0.46941,-1.28891 -0.0532,-8.94273 -0.0532,-8.94272 0.40442,-0.26078 c 0.48767,-0.31446 4.16273,-1.05385 7.1954,-1.44764 2.86998,-0.37267 7.23854,-0.37184 10.05417,0.002 2.67999,0.35575 6.18201,1.05951 6.83843,1.37425 l 0.48171,0.23096 v 8.99337 8.99337 l -0.59796,1.56554 c -1.48693,3.89301 -5.02692,7.46103 -9.54465,9.62023 -2.09661,1.00205 -2.30543,1.01786 -3.9352,0.29805 z m 0.54188,-5.34006 c -0.0477,-1.68756 -0.12547,-3.10701 -0.17279,-3.15433 -0.0473,-0.0473 -1.8135,-0.0646 -3.92485,-0.0384 l -3.8388,0.0476 0.96796,1.23472 c 0.53239,0.6791 1.44607,1.6496 2.03041,2.15668 1.84703,1.6028 4.45826,3.17219 4.86244,2.92239 0.0943,-0.0583 0.12602,-1.38658 0.0756,-3.16864 z m -2.16269,0.60224 c -0.58208,-0.40296 -1.57427,-1.25222 -2.20486,-1.88724 l -1.14652,-1.1546 1.98516,-0.0499 c 2.72305,-0.0684 2.68914,-0.0947 2.68914,2.08456 0,0.96673 -0.0595,1.75366 -0.13229,1.74875 -0.0728,-0.005 -0.60854,-0.33863 -1.19063,-0.74159 z m 6.01194,1.93474 c 1.62218,-0.86711 3.92573,-2.71759 5.0204,-4.03297 1.57733,-1.89535 1.8181,-1.73736 -2.64766,-1.73736 h -3.88676 v 3.2779 c 0,1.80284 0.0595,3.25143 0.13229,3.21909 0.0728,-0.0323 0.69454,-0.35933 1.38173,-0.72666 z m -0.80846,-2.91283 c 0,-1.10929 0.0758,-1.80444 0.21166,-1.94028 0.23827,-0.23827 4.37445,-0.3081 4.37445,-0.0739 0,0.4006 -3.95507,3.74274 -4.42913,3.74274 -0.0863,0 -0.15698,-0.77787 -0.15698,-1.72861 z m -3.46084,-5.23875 c 0.13631,-0.30999 0.32443,-0.35277 1.55111,-0.35277 1.30057,0 1.40278,0.0271 1.49558,0.39687 0.0987,0.39314 0.12894,0.39681 3.21139,0.39025 l 3.11178,-0.007 -0.66897,-0.57293 -0.66898,-0.57293 0.44546,-0.41849 c 0.245,-0.23016 0.49003,-0.55891 0.54451,-0.73055 0.0545,-0.17164 0.37262,-0.47348 0.70698,-0.67077 0.83391,-0.49201 1.31584,-1.34068 1.31334,-2.31275 -10e-4,-0.43656 -0.0744,-0.90812 -0.16285,-1.0479 -0.10383,-0.16411 -0.0716,-0.42661 0.0909,-0.7409 0.13843,-0.2677 0.2517,-0.81134 0.2517,-1.20808 0,-0.78324 -0.56595,-2.0759 -0.97811,-2.23406 -0.16025,-0.0615 -0.25661,-0.3423 -0.25661,-0.74778 0,-0.9212 -0.67203,-2.14489 -1.45521,-2.64979 -0.3638,-0.23454 -0.66146,-0.55634 -0.66146,-0.71512 0,-0.50085 -0.96859,-1.83801 -1.68882,-2.33145 -0.93743,-0.64223 -2.19113,-0.94474 -2.89641,-0.69888 -0.48149,0.16785 -0.62829,0.1266 -1.34338,-0.37748 -0.72356,-0.51005 -0.92803,-0.56592 -2.07096,-0.56592 -1.01353,0 -1.44414,0.0905 -2.14481,0.4506 -0.95667,0.49173 -1.98593,1.68395 -2.14639,2.48624 -0.0553,0.27651 -0.16724,0.50274 -0.24875,0.50274 -0.2651,0 -1.40651,1.09773 -1.66879,1.60493 -0.14057,0.27182 -0.25558,0.80073 -0.25558,1.17536 0,0.55733 -0.0995,0.75471 -0.54737,1.08584 -1.10246,0.81508 -1.47673,2.55795 -0.78152,3.63925 0.19297,0.30013 0.19181,0.43511 -0.007,0.79375 -0.62591,1.13022 -0.11422,2.74541 1.09406,3.45351 0.51002,0.29889 0.7708,0.57327 0.7708,0.811 0,0.19761 0.28346,0.62663 0.62992,0.95338 0.34645,0.32675 0.56174,0.59409 0.47841,0.59409 -0.0833,0 -0.42633,0.23613 -0.76222,0.52474 l -0.6107,0.52474 3.08681,-0.0397 c 2.8974,-0.0372 3.09633,-0.0613 3.24194,-0.39245 z m -4.78258,-1.49569 c -0.43379,-0.26449 -0.59658,-0.51099 -0.67937,-1.02871 -0.0922,-0.57675 -0.20242,-0.7147 -0.72055,-0.90206 -1.11289,-0.40243 -1.62023,-1.86686 -1.03729,-2.99414 0.23082,-0.44636 0.22125,-0.56327 -0.0991,-1.21074 -0.30022,-0.6068 -0.32577,-0.82365 -0.16669,-1.41443 0.2232,-0.82891 0.76087,-1.56029 1.26457,-1.72015 0.26933,-0.0855 0.33778,-0.21625 0.26499,-0.50625 -0.24998,-0.996 0.70554,-2.63024 1.66051,-2.83998 0.40899,-0.0898 0.52439,-0.21107 0.52439,-0.5509 0,-1.44684 1.83154,-2.89214 3.65441,-2.88377 0.82265,0.004 2.18664,0.48267 2.41163,0.84672 0.0669,0.10829 0.48855,0.14293 1.04302,0.0857 1.80017,-0.1858 3.62454,1.06803 3.93101,2.70164 0.0849,0.4525 0.25658,0.66622 0.70686,0.8799 0.83376,0.39564 1.30585,1.23407 1.30585,2.31918 0,0.62364 0.0781,0.91632 0.26358,0.98749 0.82105,0.31507 1.25575,2.274 0.68533,3.08838 -0.21969,0.31366 -0.24266,0.49616 -0.0993,0.7889 0.33843,0.69099 0.39638,1.12196 0.215,1.59903 -0.22378,0.58857 -1.0178,1.33946 -1.4164,1.33946 -0.1863,0 -0.40498,0.26657 -0.57614,0.70228 -0.3572,0.90935 -0.98313,1.22547 -1.77445,0.89619 -0.30846,-0.12835 -1.04877,-0.36528 -1.64513,-0.5265 -0.59637,-0.16122 -1.21152,-0.39871 -1.36701,-0.52776 -0.36662,-0.30427 -0.36193,-1.04627 0.009,-1.45637 0.27592,-0.30489 0.26595,-0.32257 -0.18193,-0.32257 -0.54901,0 -0.77989,-0.41165 -0.45228,-0.80639 0.16637,-0.20046 0.4024,-0.24299 0.89069,-0.16049 0.62885,0.10624 0.69368,0.0717 1.21376,-0.64623 0.43126,-0.59534 0.52045,-0.85434 0.41467,-1.20427 -0.0741,-0.2452 -0.14598,-1.00144 -0.15971,-1.68053 -0.0433,-2.14217 -0.1562,-2.427 -1.14124,-2.87889 -0.50587,-0.23207 -0.99061,-0.61229 -1.17192,-0.91921 -0.30847,-0.5222 -0.58591,-0.68469 -0.58591,-0.34316 0,0.0992 -0.37273,0.41665 -0.82828,0.70556 -0.58837,0.37313 -1.04819,0.52528 -1.5875,0.52528 -0.57751,0 -0.75922,0.0674 -0.75922,0.28147 0,0.55029 -0.60422,1.29081 -1.41192,1.73042 l -0.81946,0.44601 0.14325,1.1899 c 0.25705,2.1352 1.23,3.5722 2.93015,4.3277 0.82195,0.36525 0.84087,0.66756 0.0418,0.66756 -0.38786,0 -0.51969,0.0913 -0.56286,0.38963 -0.0469,0.32434 -0.23884,0.42646 -1.14515,0.6093 -0.59883,0.12081 -1.38243,0.34235 -1.74133,0.4923 -0.81112,0.33891 -0.75866,0.34169 -1.44455,-0.0765 z m 10.19152,-3.00148 c 0.62959,-0.17491 1.61258,-1.05984 1.81321,-1.63234 0.18425,-0.52577 -0.29088,-0.34734 -0.81105,0.30459 -0.33091,0.41472 -0.75612,0.69105 -1.31346,0.85356 -0.83284,0.24285 -1.23338,0.65066 -0.63727,0.64885 0.17786,-5.4e-4 0.60472,-0.0791 0.94857,-0.17466 z m -8.93273,-2.58642 c -0.13602,-0.45198 -0.24732,-1.12666 -0.24732,-1.4993 0,-0.50984 -0.0715,-0.67752 -0.28873,-0.67752 -0.24639,0 -0.2756,0.1636 -0.19919,1.11552 0.0972,1.2108 0.3619,1.88309 0.74145,1.88309 0.203,0 0.20202,-0.12989 -0.006,-0.82179 z m -0.96519,0.0733 c -0.0902,-0.31466 -0.16407,-0.99596 -0.16407,-1.51401 0,-1.02047 -0.25045,-1.15959 -0.66502,-0.36941 -0.38859,0.74067 0.13167,2.45552 0.74497,2.45552 0.19605,0 0.21373,-0.1202 0.0841,-0.5721 z m 11.38525,-0.0894 c -0.23628,-0.56063 -0.30089,-2.07429 -0.11698,-2.74038 0.20128,-0.72896 0.0186,-0.85327 -0.59481,-0.40474 -0.28572,0.20893 -0.34239,0.46719 -0.34239,1.56039 0,1.40096 0.21697,1.89341 0.83422,1.89341 0.26534,0 0.31857,-0.0747 0.21996,-0.30868 z m 1.55739,-0.60754 c 0.37217,-0.7614 0.2728,-1.66729 -0.25673,-2.34048 -0.41366,-0.52588 -0.76841,-0.42201 -1.0196,0.29855 -0.25961,0.7447 -0.23636,1.44433 0.0725,2.18364 0.3326,0.79603 0.77063,0.74447 1.20379,-0.14171 z m -1.35297,-3.97853 c -0.0617,-0.46082 -0.37019,-1.35379 -0.68543,-1.98438 -0.70138,-1.40297 -1.86162,-2.29305 -2.98906,-2.29305 -0.89519,0 -0.82413,0.39575 0.098,0.54563 1.37991,0.2243 2.6646,1.86934 2.87997,3.6878 0.0863,0.72889 0.16553,0.88185 0.45662,0.88185 0.31831,0 0.34139,-0.0806 0.23992,-0.83785 z m -6.20362,6.49464 c -0.3928,-0.16338 -0.67842,-0.4758 -0.83208,-0.9102 -0.0837,-0.23648 0.0712,-0.2812 0.98685,-0.28503 0.59735,-0.003 1.23629,-0.035 1.41987,-0.0723 0.49655,-0.10078 0.53045,0.2739 0.0713,0.78815 -0.45607,0.51082 -1.11143,0.70169 -1.64595,0.47937 z m 1.28285,-0.66753 c 0.0578,-0.17335 -0.60478,-0.13373 -1.18853,0.0711 -0.20899,0.0733 -0.19046,0.12082 0.0882,0.2261 0.39191,0.14807 1.00733,-0.0181 1.10034,-0.29716 z m -1.36925,-1.37851 c -0.25564,-0.30803 0.0181,-1.14131 0.37493,-1.14131 0.14428,0 0.13973,0.0747 -0.016,0.26234 -0.26583,0.3203 -0.11214,0.79599 0.25718,0.79599 0.14857,0 0.27012,0.0794 0.27012,0.17639 0,0.27451 -0.63662,0.20741 -0.88628,-0.0934 z m -1.34754,-1.41775 c -0.14701,-0.38311 0.22621,-0.74339 0.49335,-0.47625 0.22578,0.22579 0.0859,0.75269 -0.19981,0.75269 -0.1031,0 -0.2352,-0.1244 -0.29354,-0.27644 z m 3.29054,-0.16647 c -0.17304,-0.2085 -0.17304,-0.31679 0,-0.52529 0.26533,-0.3197 0.53078,-0.18835 0.53078,0.26265 0,0.45099 -0.26545,0.58234 -0.53078,0.26264 z m 54.410699,12.56321 c -0.88624,-0.76459 -0.88959,-2.23155 -0.0124,-5.45129 0.25067,-0.92009 0.57232,-2.00327 0.71478,-2.40706 0.17301,-0.49035 0.19504,-0.73417 0.0663,-0.73417 -0.72358,0 -4.66691,0.78039 -4.76989,0.94397 -0.25418,0.40374 -1.566431,4.60804 -1.666771,5.34017 -0.12266,0.89489 -0.40475,1.0537 -1.01667,0.57237 -0.3443,-0.27083 -0.45223,-0.51645 -0.45223,-1.02917 0,-0.59003 0.64672,-3.4249 0.97729,-4.28394 0.0968,-0.25156 0.0214,-0.30868 -0.40765,-0.30868 -0.28954,0 -0.62856,-0.12305 -0.75337,-0.27344 -0.30965,-0.3731 0.0125,-0.65951 1.15809,-1.02962 l 0.88615,-0.2863 0.78954,-2.23988 c 0.434241,-1.23193 1.107031,-2.87854 1.495091,-3.65914 0.77133,-1.55156 1.12498,-1.77892 1.85171,-1.19045 l 0.41212,0.33372 -1.33127,3.15832 c -0.73221,1.73707 -1.30913,3.18336 -1.28205,3.21397 0.0453,0.0512 3.55033,-0.42039 4.43878,-0.59719 0.21181,-0.0421 0.44156,-0.25505 0.51055,-0.47311 0.3,-0.94817 2.23868,-5.32947 2.63846,-5.96277 0.50574,-0.80113 0.99862,-0.89913 1.40475,-0.27931 0.25748,0.39297 0.22293,0.52649 -0.61931,2.39319 -0.4906,1.08735 -1.08124,2.47978 -1.31254,3.09428 l -0.42056,1.11728 0.77935,0.19624 c 0.88545,0.22296 1.00858,0.48976 0.29426,0.63762 -1.56141,0.32321 -1.47685,0.24588 -2.02169,1.84881 -0.80589,2.37094 -1.418,5.09884 -1.4332,6.38709 -0.0159,1.35237 -0.22137,1.56917 -0.91763,0.96849 z m 0.38828,-3.16856 c -0.0489,-0.12127 -0.089,-0.0221 -0.089,0.22048 0,0.24254 0.04,0.34176 0.089,0.22049 0.0489,-0.12127 0.0489,-0.31971 0,-0.44097 z m 0.18007,-0.87092 c -0.0563,-0.14071 -0.0981,-0.0989 -0.10657,0.10656 -0.008,0.18595 0.034,0.29013 0.0926,0.23152 0.0586,-0.0586 0.0649,-0.21075 0.0139,-0.33808 z m 0.74518,-2.52457 c -0.019,-0.30348 -0.66172,1.56846 -0.66613,1.94028 -0.002,0.19403 0.14913,-0.12347 0.33651,-0.70556 0.18738,-0.58208 0.33571,-1.13771 0.32962,-1.23472 z m -35.481989,6.26769 c -0.83239,-0.65941 -0.55735,-1.70409 0.3244,-1.23219 0.50134,0.26831 1.78162,-0.0345 3.93315,-0.93015 2.66479,-1.10936 5.48793,-3.45134 5.48793,-4.5526 0,-1.19283 -1.64914,-1.61652 -4.4067,-1.13214 l -1.74967,0.30734 -0.46288,1.26913 c -0.25458,0.69802 -0.64296,1.8931 -0.86306,2.65574 -0.46547,1.61284 -0.82848,1.97378 -1.34818,1.34049 -0.18795,-0.22903 -0.34173,-0.6275 -0.34173,-0.88549 0,-1.76226 3.47625,-10.28115 4.39628,-10.77354 0.44751,-0.2395 0.58566,-0.23178 0.97733,0.0546 0.309,0.22594 0.26934,0.35852 -0.77065,2.57642 -0.60303,1.28602 -1.05494,2.37969 -1.00426,2.43038 0.14706,0.14705 2.63404,-1.0937 3.75514,-1.87344 2.72536,-1.89553 3.54073,-3.34795 2.39165,-4.26023 -0.4398,-0.34917 -0.63323,-0.37701 -2.07257,-0.29834 -1.17934,0.0645 -1.96503,0.22628 -3.05584,0.62936 -1.59741,0.59028 -4.44069,2.36623 -4.44069,2.77371 0,0.34613 -0.23959,0.31803 -0.59002,-0.0692 -0.80321,-0.88753 -0.07,-1.94665 2.13651,-3.08628 2.80816,-1.45036 6.20747,-1.96621 7.89761,-1.19849 0.88082,0.4001 1.61837,1.25085 1.76582,2.03683 0.25847,1.37779 -1.29828,3.31179 -3.68285,4.5753 -0.84476,0.44761 -0.84751,0.45193 -0.35278,0.55411 1.90711,0.39385 2.71711,0.91137 3.06196,1.95629 0.29271,0.88691 0.0889,1.66275 -0.72556,2.76209 -1.69718,2.29078 -5.68677,4.47192 -8.54055,4.66919 -1.07811,0.0745 -1.29625,0.0366 -1.71979,-0.29892 z m 3.97062,-0.94172 c 1.77644,-0.64481 3.42969,-1.6598 4.61173,-2.8313 0.66302,-0.65711 0.74259,-0.76348 0.20218,-0.27028 -1.66549,1.51998 -3.76112,2.69743 -5.74183,3.22609 -0.53357,0.14242 -0.79515,0.26417 -0.58128,0.27055 0.21386,0.006 0.89301,-0.17139 1.5092,-0.39506 z m 19.571438,0.83693 c -0.74079,-0.51887 -0.99867,-1.27986 -0.9826,-2.8997 0.0237,-2.38976 0.86325,-5.70044 2.29886,-9.06521 0.32671,-0.76575 0.56635,-1.41996 0.53252,-1.45379 -0.10923,-0.10923 -1.81614,2.28105 -4.10337,5.74616 -1.84506,2.79525 -2.29624,3.37189 -2.603418,3.32737 -0.55696,-0.0807 -1.13802,-1.08786 -1.2791,-2.2171 -0.12789,-1.0236 0.009,-4.7188 0.20397,-5.50966 0.19859,-0.80512 -0.62003,0.6458 -1.69183,2.99861 -1.15128,2.52732 -2.2027,5.31867 -2.64618,7.02523 -0.33643,1.29459 -0.62898,1.51567 -1.22153,0.92312 -0.55467,-0.55468 -0.45834,-1.50692 0.41673,-4.11937 1.761,-5.2573 4.73321,-10.88453 5.74904,-10.88453 0.18156,0 0.54718,0.18672 0.812488,0.41493 l 0.48239,0.41494 -0.21946,2.01041 c -0.27209,2.4924 -0.464258,6.33194 -0.31693,6.33194 0.0603,0 0.71699,-0.93266 1.45941,-2.07257 1.61294,-2.47651 3.29049,-4.66939 4.72279,-6.17361 1.15602,-1.21406 1.75409,-1.40049 2.40492,-0.74965 0.44985,0.44984 0.44915,0.45787 -0.15602,1.80668 -1.34795,3.00434 -2.9186,8.64105 -3.1091,11.1579 -0.0904,1.19462 -0.0562,1.77141 0.13849,2.33063 0.14226,0.40873 0.21603,0.78576 0.16394,0.83785 -0.1779,0.1779 -0.66254,0.095 -1.05601,-0.18058 z m -0.093,-3.91394 c -0.0444,-0.16978 -0.0807,-0.0309 -0.0807,0.30868 0,0.33955 0.0363,0.47845 0.0807,0.30868 0.0444,-0.16977 0.0444,-0.44759 0,-0.61736 z m 0.17703,-1.23137 c -0.0447,-0.17162 -0.0842,-0.0739 -0.0879,0.21713 -0.004,0.29104 0.033,0.43146 0.0813,0.31204 0.0483,-0.11942 0.0513,-0.35755 0.007,-0.52917 z m 0.37695,-1.45856 c 0.003,-0.1621 -0.0535,-0.12794 -0.14641,0.0882 -0.0834,0.19403 -0.14926,0.51153 -0.14641,0.70556 0.004,0.28359 0.0329,0.2663 0.14641,-0.0882 0.0777,-0.24253 0.14356,-0.56003 0.14641,-0.70555 z m -10.029588,0.0882 c 0,-0.097 -0.0769,-0.0573 -0.17098,0.0882 -0.094,0.14552 -0.17099,0.34396 -0.17099,0.44097 0,0.097 0.0769,0.0573 0.17099,-0.0882 0.094,-0.14553 0.17098,-0.34396 0.17098,-0.44098 z m 1.31082,-2.95451 c 0.43295,-0.94589 0.74738,-1.71979 0.69875,-1.71979 -0.11917,0 -1.75554,3.50119 -1.89612,4.05694 -0.13558,0.536 0.0322,0.20855 1.19737,-2.33715 z m 8.869248,2.12769 c -0.0563,-0.14071 -0.0981,-0.0989 -0.10657,0.10657 -0.008,0.18594 0.034,0.29012 0.0926,0.23151 0.0586,-0.0586 0.0649,-0.21075 0.0139,-0.33808 z m -3.40633,-0.62871 c 0.13805,-0.26696 0.7044,-1.11733 1.25855,-1.88969 0.55415,-0.77237 0.88729,-1.30451 0.74032,-1.18253 -0.50361,0.41796 -2.56848,3.55761 -2.33975,3.55761 0.0494,0 0.20283,-0.21842 0.34088,-0.48539 z m 3.58271,-0.0769 c -0.0563,-0.14071 -0.0981,-0.0989 -0.10656,0.10657 -0.008,0.18595 0.034,0.29013 0.0926,0.23151 0.0586,-0.0586 0.0649,-0.21074 0.0139,-0.33808 z m 18.054411,7.80697 c -0.25868,-0.48337 -0.0467,-0.93116 0.37707,-0.79665 0.18817,0.0597 0.72157,0.0176 1.18533,-0.0937 l 0.84319,-0.20228 0.20287,-1.10099 c 0.30476,-1.65398 2.03344,-6.87354 3.20917,-9.68976 0.57189,-1.36983 1.00251,-2.5279 0.95692,-2.57349 -0.13921,-0.13921 -2.07604,0.53024 -2.59317,0.8963 -0.63331,0.4483 -1.08667,0.35435 -1.15561,-0.23947 -0.0415,-0.35757 0.0824,-0.56781 0.52916,-0.89794 2.00141,-1.47885 7.70736,-2.23867 8.14996,-1.08528 0.23089,0.6017 0.12011,0.69016 -0.78573,0.62741 -0.49075,-0.034 -1.15544,-0.0124 -1.47708,0.0479 l -0.58482,0.10971 -1.9546,5.24377 c -1.07503,2.88407 -2.14832,5.91845 -2.3851,6.74307 l -0.43051,1.4993 1.05458,0.0889 c 0.7814,0.0659 1.12167,0.18008 1.31357,0.44097 0.24881,0.33825 0.21873,0.35769 -0.76437,0.49423 -0.56285,0.0782 -1.78012,0.29645 -2.70505,0.48507 -2.15589,0.43964 -2.75175,0.44022 -2.98578,0.003 z m 16.98402,-0.96456 c -0.77053,-0.66278 -0.46538,-1.21936 1.30731,-2.38452 l 1.45302,-0.95504 -0.5179,-0.89704 c -0.28485,-0.49337 -0.59617,-0.89704 -0.69183,-0.89704 -0.0957,0 -0.56506,0.55563 -1.04311,1.23472 -1.04106,1.47889 -2.46676,2.84976 -3.13929,3.01855 -0.59383,0.14904 -1.29458,-0.20503 -1.62091,-0.81902 -0.33386,-0.62813 -0.16369,-1.95678 0.49388,-3.85604 0.31003,-0.89546 0.52639,-1.6654 0.4808,-1.71098 -0.27301,-0.27302 -3.85694,4.42062 -4.55053,5.95953 -0.30241,0.67097 -0.64567,0.73715 -1.15933,0.22349 -0.36413,-0.36413 -0.42239,-0.54646 -0.32349,-1.01246 0.16232,-0.76476 1.61315,-4.78129 2.08487,-5.77182 0.4253,-0.89304 0.92607,-1.09301 1.40682,-0.56179 0.28936,0.31974 0.27068,0.42066 -0.3933,2.12443 -0.38341,0.98382 -0.66785,1.78875 -0.6321,1.78875 0.0358,0 0.50626,-0.58629 1.04557,-1.30288 1.37138,-1.82213 2.24518,-2.57767 2.98114,-2.57767 0.70187,0 1.17336,0.45009 1.17336,1.12011 0,0.26124 -0.29034,1.20749 -0.6452,2.10278 -0.74534,1.88048 -0.88118,3.16434 -0.34614,3.27167 0.36216,0.0727 1.92385,-1.45731 3.10522,-3.04215 0.56047,-0.75188 0.66325,-1.02371 0.64357,-1.70218 -0.0184,-0.6354 0.0821,-0.94576 0.47186,-1.45684 1.18356,-1.5519 3.64985,-1.91435 3.64985,-0.53638 0,0.35627 -0.087,0.41938 -0.57811,0.41938 -0.94274,0 -1.89133,0.77662 -1.89133,1.54845 0,0.43287 1.17099,2.69588 1.38219,2.67118 0.0644,-0.008 0.74076,-0.38456 1.503,-0.83784 l 1.38589,-0.82415 0.60926,-1.5875 c 0.3351,-0.87313 0.64842,-1.70752 0.69628,-1.85421 0.0715,-0.21915 -0.11126,-0.26633 -1.02501,-0.26458 -0.99514,0.002 -1.11203,-0.035 -1.11203,-0.35066 0,-0.29898 0.20692,-0.39364 1.35687,-0.62075 l 1.35686,-0.26798 0.72642,-1.45134 c 0.74306,-1.48459 1.17145,-1.90473 1.75369,-1.71993 0.56372,0.17892 0.56723,0.63072 0.0141,1.81277 -0.29348,0.62717 -0.53361,1.15918 -0.53361,1.18224 0,0.0231 0.67866,0.0419 1.50812,0.0419 1.46955,0 2.12236,0.21034 1.74625,0.56267 -0.0922,0.0863 -0.95832,0.24782 -1.9248,0.35884 -0.9748,0.11199 -1.81843,0.29735 -1.89468,0.41629 -0.35963,0.56099 -1.74617,4.34704 -2.08,5.67959 -0.44405,1.7725 -0.42155,2.79253 0.0636,2.88457 0.72551,0.13763 3.84807,-3.58426 4.50182,-5.36588 0.57942,-1.57903 0.99656,-2.19011 1.49504,-2.19011 0.90746,0 0.90806,0.35697 0.005,2.75832 -0.92132,2.44893 -1.11304,3.79567 -0.55631,3.90772 0.35306,0.0711 1.93097,-1.35655 2.8915,-2.61607 0.34984,-0.45875 0.93536,-1.61719 1.30114,-2.57432 0.36579,-0.95713 0.72065,-1.87517 0.78858,-2.0401 0.10733,-0.26055 -0.0212,-0.3068 -0.98039,-0.35278 -0.69311,-0.0332 -1.13132,-0.1359 -1.17756,-0.27591 -0.0915,-0.27712 0.82554,-0.67202 1.95033,-0.83985 0.83963,-0.12528 0.85136,-0.13629 1.4748,-1.3838 0.7622,-1.52519 1.05412,-1.87488 1.56514,-1.87488 0.78812,0 0.85435,0.40332 0.28769,1.752 l -0.52377,1.24661 h 1.49378 c 1.43665,0 2.28563,0.20931 2.09568,0.51666 -0.0497,0.0804 -1.002,0.24438 -2.11624,0.36441 l -2.0259,0.21822 -0.69468,1.78751 c -1.49479,3.84624 -2.09637,6.51339 -1.56801,6.95189 0.40545,0.3365 1.25363,-0.34468 2.81263,-2.25884 1.02628,-1.26008 1.54154,-2.09402 2.09596,-3.39232 0.59352,-1.38984 0.81931,-1.74262 1.17198,-1.83114 0.30702,-0.0771 0.54137,-0.005 0.7887,0.24225 0.35159,0.35159 0.35152,0.35262 -0.0814,1.21378 -1.04935,2.08718 -1.65475,4.6282 -1.17353,4.92561 0.34335,0.2122 1.54992,-1.30643 3.01982,-3.80088 0.79982,-1.3573 1.59303,-2.51188 1.76269,-2.56573 0.45354,-0.14395 1.08024,0.24491 0.96409,0.5982 -0.0531,0.16147 -0.38091,1.08309 -0.7285,2.04804 -0.69003,1.91557 -0.97659,3.66919 -0.63417,3.88082 0.1137,0.0703 0.40272,-6.5e-4 0.64226,-0.15761 0.46571,-0.30514 2.52275,-2.80973 2.68119,-3.26453 0.0866,-0.24872 1.38551,-3.5594 1.56101,-3.97887 0.0457,-0.10911 -0.35394,-0.17751 -1.03052,-0.17639 -0.98778,0.002 -1.10508,-0.0356 -1.10508,-0.35063 0,-0.29992 0.20045,-0.38932 1.34457,-0.59967 l 1.34457,-0.2472 0.67915,-1.39298 c 0.8114,-1.66421 1.12199,-1.99003 1.74743,-1.83305 0.67771,0.17009 0.69432,0.47004 0.0988,1.78349 -0.2971,0.65525 -0.54019,1.22767 -0.54019,1.27205 0,0.0444 0.45641,0.0586 1.01424,0.0316 0.55783,-0.027 1.29205,-0.0334 1.63159,-0.0142 0.63975,0.0361 1.20975,0.28964 1.03785,0.46154 -0.12232,0.12232 -1.65184,0.39042 -3.09771,0.54298 l -1.08973,0.11498 -0.87616,2.14492 c -0.94899,2.32318 -1.61869,4.72283 -1.61869,5.80001 0,0.81021 0.3564,1.02529 1.03643,0.62545 0.72546,-0.42656 2.96822,-3.26971 3.5355,-4.48195 1.24736,-2.66556 3.54984,-4.00048 4.83912,-2.80562 0.30285,0.28068 0.46673,0.61649 0.46673,0.95643 0,1.11755 -2.00118,2.94378 -3.48891,3.18389 -0.64913,0.10476 -0.6568,0.11568 -0.70881,1.00863 -0.0625,1.07224 0.23435,1.47406 1.08888,1.47406 1.03086,0 2.27508,-0.80302 3.98855,-2.57421 0.89454,-0.92468 1.66739,-1.64026 1.71746,-1.5902 0.28504,0.28505 -0.3337,1.19741 -1.85202,2.7309 -1.94823,1.96768 -2.84391,2.49184 -4.25806,2.49184 -0.82304,0 -1.00157,-0.0695 -1.52598,-0.59389 -0.39861,-0.39861 -0.63174,-0.83066 -0.70903,-1.31401 l -0.11516,-0.72013 -0.90663,1.17406 c -1.09579,1.419 -2.24477,2.33591 -2.92712,2.33591 -0.3483,0 -0.66111,-0.18671 -1.04462,-0.6235 -0.49256,-0.56098 -0.54744,-0.73875 -0.54744,-1.77313 v -1.14964 l -1.10243,1.14505 c -0.60634,0.62977 -1.32129,1.19831 -1.58879,1.26341 -1.25276,0.30489 -2.13921,-1.43684 -1.53718,-3.02031 0.31986,-0.84129 0.0866,-0.62587 -0.80773,0.74582 -0.92934,1.42546 -1.81314,2.17758 -2.55879,2.17758 -0.64442,0 -1.26935,-0.73474 -1.3893,-1.63342 l -0.0998,-0.74777 -0.81985,1.06562 c -1.64791,2.14189 -2.77487,2.85895 -3.65449,2.32523 -0.78959,-0.4791 -1.11726,-1.30052 -1.02494,-2.56933 0.0448,-0.61529 0.0247,-1.05185 -0.0446,-0.97014 -0.0693,0.0817 -0.39297,0.49607 -0.71926,0.92081 -1.90489,2.47955 -3.95054,2.33757 -4.27082,-0.29641 -0.0421,-0.34649 -0.17887,-0.23375 -0.93133,0.76785 -1.87604,2.49721 -3.22259,2.96238 -4.15391,1.43498 -0.38293,-0.62801 -0.46724,-2.25131 -0.17063,-3.28551 0.0953,-0.33249 0.14664,-0.63125 0.11396,-0.66392 -0.0327,-0.0327 -0.59554,0.25388 -1.25081,0.6368 -1.1673,0.68213 -1.19201,0.71174 -1.22193,1.46382 -0.0437,1.09946 -0.64176,1.96357 -1.73648,2.50909 -1.14886,0.5725 -1.90656,0.58166 -2.54698,0.0308 z m 1.55904,-0.76801 c 0.55438,-0.32629 1.32227,-1.3974 1.13562,-1.58405 -0.17197,-0.17196 -2.12337,1.24101 -2.18972,1.58554 -0.077,0.39997 0.37306,0.39934 1.0541,-0.001 z m 38.43328,-4.42897 c 0.4313,-0.27737 0.95749,-0.69409 1.16931,-0.92604 0.44795,-0.49052 0.80833,-1.34963 0.66406,-1.58306 -0.30361,-0.49126 -1.19134,0.14546 -2.08961,1.49876 -1.10064,1.65819 -1.05163,1.85144 0.25624,1.01034 z m -25.41519,-4.97426 c -0.15307,-0.28601 -0.12257,-0.50177 0.14338,-1.01423 0.28842,-0.55579 0.42517,-0.65095 0.93546,-0.65095 0.78481,0 0.86756,0.42091 0.2625,1.33522 -0.51037,0.77122 -1.03599,0.90052 -1.34134,0.32996 z"
       id="path22" /></g></svg>
