<svg xmlns="http://www.w3.org/2000/svg" width="512" height="512" viewBox="-5.43 -2 35.858772 35.858772">
  <rect x="-5.43" y="-2" width="35.858772" height="35.858772" rx="5" fill="#fff" />
  <g transform="translate(-36.272371,-137.73682)">
    <path fill="#000" d="m 47.168691,169.09345 c -5.05468,-2.23247 -8.75012,-5.88294 -10.32051,-10.19491 l -0.46941,-1.28891 -0.0532,-8.94273 -0.0532,-8.94272 0.40442,-0.26078 c 0.48767,-0.31446 4.16273,-1.05385 7.1954,-1.44764 2.86998,-0.37267 7.23854,-0.37184 10.05417,0.002 2.67999,0.35575 6.18201,1.05951 6.83843,1.37425 l 0.48171,0.23096 v 8.99337 8.99337 l -0.59796,1.56554 c -1.48693,3.89301 -5.02692,7.46103 -9.54465,9.62023 -2.09661,1.00205 -2.30543,1.01786 -3.9352,0.29805 z m 0.54188,-5.34006 c -0.0477,-1.68756 -0.12547,-3.10701 -0.17279,-3.15433 -0.0473,-0.0473 -1.8135,-0.0646 -3.92485,-0.0384 l -3.8388,0.0476 0.96796,1.23472 c 0.53239,0.6791 1.44607,1.6496 2.03041,2.15668 1.84703,1.6028 4.45826,3.17219 4.86244,2.92239 0.0943,-0.0583 0.12602,-1.38658 0.0756,-3.16864 z m -2.16269,0.60224 c -0.58208,-0.40296 -1.57427,-1.25222 -2.20486,-1.88724 l -1.14652,-1.1546 1.98516,-0.0499 c 2.72305,-0.0684 2.68914,-0.0947 2.68914,2.08456 0,0.96673 -0.0595,1.75366 -0.13229,1.74875 -0.0728,-0.005 -0.60854,-0.33863 -1.19063,-0.74159 z m 6.01194,1.93474 c 1.62218,-0.86711 3.92573,-2.71759 5.0204,-4.03297 1.57733,-1.89535 1.8181,-1.73736 -2.64766,-1.73736 h -3.88676 v 3.2779 c 0,1.80284 0.0595,3.25143 0.13229,3.21909 0.0728,-0.0323 0.69454,-0.35933 1.38173,-0.72666 z m -0.80846,-2.91283 c 0,-1.10929 0.0758,-1.80444 0.21166,-1.94028 0.23827,-0.23827 4.37445,-0.3081 4.37445,-0.0739 0,0.4006 -3.95507,3.74274 -4.42913,3.74274 -0.0863,0 -0.15698,-0.77787 -0.15698,-1.72861 z m -3.46084,-5.23875 c 0.13631,-0.30999 0.32443,-0.35277 1.55111,-0.35277 1.30057,0 1.40278,0.0271 1.49558,0.39687 0.0987,0.39314 0.12894,0.39681 3.21139,0.39025 l 3.11178,-0.007 -0.66897,-0.57293 -0.66898,-0.57293 0.44546,-0.41849 c 0.245,-0.23016 0.49003,-0.55891 0.54451,-0.73055 0.0545,-0.17164 0.37262,-0.47348 0.70698,-0.67077 0.83391,-0.49201 1.31584,-1.34068 1.31334,-2.31275 -10e-4,-0.43656 -0.0744,-0.90812 -0.16285,-1.0479 -0.10383,-0.16411 -0.0716,-0.42661 0.0909,-0.7409 0.13843,-0.2677 0.2517,-0.81134 0.2517,-1.20808 0,-0.78324 -0.56595,-2.0759 -0.97811,-2.23406 -0.16025,-0.0615 -0.25661,-0.3423 -0.25661,-0.74778 0,-0.9212 -0.67203,-2.14489 -1.45521,-2.64979 -0.3638,-0.23454 -0.66146,-0.55634 -0.66146,-0.71512 0,-0.50085 -0.96859,-1.83801 -1.68882,-2.33145 -0.93743,-0.64223 -2.19113,-0.94474 -2.89641,-0.69888 -0.48149,0.16785 -0.62829,0.1266 -1.34338,-0.37748 -0.72356,-0.51005 -0.92803,-0.56592 -2.07096,-0.56592 -1.01353,0 -1.44414,0.0905 -2.14481,0.4506 -0.95667,0.49173 -1.98593,1.68395 -2.14639,2.48624 -0.0553,0.27651 -0.16724,0.50274 -0.24875,0.50274 -0.2651,0 -1.40651,1.09773 -1.66879,1.60493 -0.14057,0.27182 -0.25558,0.80073 -0.25558,1.17536 0,0.55733 -0.0995,0.75471 -0.54737,1.08584 -1.10246,0.81508 -1.47673,2.55795 -0.78152,3.63925 0.19297,0.30013 0.19181,0.43511 -0.007,0.79375 -0.62591,1.13022 -0.11422,2.74541 1.09406,3.45351 0.51002,0.29889 0.7708,0.57327 0.7708,0.811 0,0.19761 0.28346,0.62663 0.62992,0.95338 0.34645,0.32675 0.56174,0.59409 0.47841,0.59409 -0.0833,0 -0.42633,0.23613 -0.76222,0.52474 l -0.6107,0.52474 3.08681,-0.0397 c 2.8974,-0.0372 3.09633,-0.0613 3.24194,-0.39245 z m -4.78258,-1.49569 c -0.43379,-0.26449 -0.59658,-0.51099 -0.67937,-1.02871 -0.0922,-0.57675 -0.20242,-0.7147 -0.72055,-0.90206 -1.11289,-0.40243 -1.62023,-1.86686 -1.03729,-2.99414 0.23082,-0.44636 0.22125,-0.56327 -0.0991,-1.21074 -0.30022,-0.6068 -0.32577,-0.82365 -0.16669,-1.41443 0.2232,-0.82891 0.76087,-1.56029 1.26457,-1.72015 0.26933,-0.0855 0.33778,-0.21625 0.26499,-0.50625 -0.24998,-0.996 0.70554,-2.63024 1.66051,-2.83998 0.40899,-0.0898 0.52439,-0.21107 0.52439,-0.5509 0,-1.44684 1.83154,-2.89214 3.65441,-2.88377 0.82265,0.004 2.18664,0.48267 2.41163,0.84672 0.0669,0.10829 0.48855,0.14293 1.04302,0.0857 1.80017,-0.1858 3.62454,1.06803 3.93101,2.70164 0.0849,0.4525 0.25658,0.66622 0.70686,0.8799 0.83376,0.39564 1.30585,1.23407 1.30585,2.31918 0,0.62364 0.0781,0.91632 0.26358,0.98749 0.82105,0.31507 1.25575,2.274 0.68533,3.08838 -0.21969,0.31366 -0.24266,0.49616 -0.0993,0.7889 0.33843,0.69099 0.39638,1.12196 0.215,1.59903 -0.22378,0.58857 -1.0178,1.33946 -1.4164,1.33946 -0.1863,0 -0.40498,0.26657 -0.57614,0.70228 -0.3572,0.90935 -0.98313,1.22547 -1.77445,0.89619 -0.30846,-0.12835 -1.04877,-0.36528 -1.64513,-0.5265 -0.59637,-0.16122 -1.21152,-0.39871 -1.36701,-0.52776 -0.36662,-0.30427 -0.36193,-1.04627 0.009,-1.45637 0.27592,-0.30489 0.26595,-0.32257 -0.18193,-0.32257 -0.54901,0 -0.77989,-0.41165 -0.45228,-0.80639 0.16637,-0.20046 0.4024,-0.24299 0.89069,-0.16049 0.62885,0.10624 0.69368,0.0717 1.21376,-0.64623 0.43126,-0.59534 0.52045,-0.85434 0.41467,-1.20427 -0.0741,-0.2452 -0.14598,-1.00144 -0.15971,-1.68053 -0.0433,-2.14217 -0.1562,-2.427 -1.14124,-2.87889 -0.50587,-0.23207 -0.99061,-0.61229 -1.17192,-0.91921 -0.30847,-0.5222 -0.58591,-0.68469 -0.58591,-0.34316 0,0.0992 -0.37273,0.41665 -0.82828,0.70556 -0.58837,0.37313 -1.04819,0.52528 -1.5875,0.52528 -0.57751,0 -0.75922,0.0674 -0.75922,0.28147 0,0.55029 -0.60422,1.29081 -1.41192,1.73042 l -0.81946,0.44601 0.14325,1.1899 c 0.25705,2.1352 1.23,3.5722 2.93015,4.3277 0.82195,0.36525 0.84087,0.66756 0.0418,0.66756 -0.38786,0 -0.51969,0.0913 -0.56286,0.38963 -0.0469,0.32434 -0.23884,0.42646 -1.14515,0.6093 -0.59883,0.12081 -1.38243,0.34235 -1.74133,0.4923 -0.81112,0.33891 -0.75866,0.34169 -1.44455,-0.0765 z m 10.19152,-3.00148 c 0.62959,-0.17491 1.61258,-1.05984 1.81321,-1.63234 0.18425,-0.52577 -0.29088,-0.34734 -0.81105,0.30459 -0.33091,0.41472 -0.75612,0.69105 -1.31346,0.85356 -0.83284,0.24285 -1.23338,0.65066 -0.63727,0.64885 0.17786,-5.4e-4 0.60472,-0.0791 0.94857,-0.17466 z m -8.93273,-2.58642 c -0.13602,-0.45198 -0.24732,-1.12666 -0.24732,-1.4993 0,-0.50984 -0.0715,-0.67752 -0.28873,-0.67752 -0.24639,0 -0.2756,0.1636 -0.19919,1.11552 0.0972,1.2108 0.3619,1.88309 0.74145,1.88309 0.203,0 0.20202,-0.12989 -0.006,-0.82179 z m -0.96519,0.0733 c -0.0902,-0.31466 -0.16407,-0.99596 -0.16407,-1.51401 0,-1.02047 -0.25045,-1.15959 -0.66502,-0.36941 -0.38859,0.74067 0.13167,2.45552 0.74497,2.45552 0.19605,0 0.21373,-0.1202 0.0841,-0.5721 z m 11.38525,-0.0894 c -0.23628,-0.56063 -0.30089,-2.07429 -0.11698,-2.74038 0.20128,-0.72896 0.0186,-0.85327 -0.59481,-0.40474 -0.28572,0.20893 -0.34239,0.46719 -0.34239,1.56039 0,1.40096 0.21697,1.89341 0.83422,1.89341 0.26534,0 0.31857,-0.0747 0.21996,-0.30868 z m 1.55739,-0.60754 c 0.37217,-0.7614 0.2728,-1.66729 -0.25673,-2.34048 -0.41366,-0.52588 -0.76841,-0.42201 -1.0196,0.29855 -0.25961,0.7447 -0.23636,1.44433 0.0725,2.18364 0.3326,0.79603 0.77063,0.74447 1.20379,-0.14171 z m -1.35297,-3.97853 c -0.0617,-0.46082 -0.37019,-1.35379 -0.68543,-1.98438 -0.70138,-1.40297 -1.86162,-2.29305 -2.98906,-2.29305 -0.89519,0 -0.82413,0.39575 0.098,0.54563 1.37991,0.2243 2.6646,1.86934 2.87997,3.6878 0.0863,0.72889 0.16553,0.88185 0.45662,0.88185 0.31831,0 0.34139,-0.0806 0.23992,-0.83785 z m -6.20362,6.49464 c -0.3928,-0.16338 -0.67842,-0.4758 -0.83208,-0.9102 -0.0837,-0.23648 0.0712,-0.2812 0.98685,-0.28503 0.59735,-0.003 1.23629,-0.035 1.41987,-0.0723 0.49655,-0.10078 0.53045,0.2739 0.0713,0.78815 -0.45607,0.51082 -1.11143,0.70169 -1.64595,0.47937 z m 1.28285,-0.66753 c 0.0578,-0.17335 -0.60478,-0.13373 -1.18853,0.0711 -0.20899,0.0733 -0.19046,0.12082 0.0882,0.2261 0.39191,0.14807 1.00733,-0.0181 1.10034,-0.29716 z m -1.36925,-1.37851 c -0.25564,-0.30803 0.0181,-1.14131 0.37493,-1.14131 0.14428,0 0.13973,0.0747 -0.016,0.26234 -0.26583,0.3203 -0.11214,0.79599 0.25718,0.79599 0.14857,0 0.27012,0.0794 0.27012,0.17639 0,0.27451 -0.63662,0.20741 -0.88628,-0.0934 z m -1.34754,-1.41775 c -0.14701,-0.38311 0.22621,-0.74339 0.49335,-0.47625 0.22578,0.22579 0.0859,0.75269 -0.19981,0.75269 -0.1031,0 -0.2352,-0.1244 -0.29354,-0.27644 z m 3.29054,-0.16647 c -0.17304,-0.2085 -0.17304,-0.31679 0,-0.52529 0.26533,-0.3197 0.53078,-0.18835 0.53078,0.26265 0,0.45099 -0.26545,0.58234 -0.53078,0.26264 z" />
  </g>
</svg>
